# xmcd
#
# Track frame offsets:
#	150
#	17914
#	30221
#	50317
#	67054
#	80904
#	93617
#	105317
#	116892
#	143754
#	157339
#	176226
#	196173
#	214694
#	230466
#	247539
#	260136
#	277171
#	295554
#	310577
#
# Disc length: 4321 seconds
#
# Revision: 1
# Processed by: cddbd v1.5.1PL0 Copyright (c) Steve Scherf et al.
# Submitted via: audiograbber 1.82.02
#
DISCID=2010df14
DTITLE=Ally McBeal - Searchin My Soul
DYEAR=1900
DGENRE=Country
TTITLE0=Searchen My Soul
TTITLE1=To Sir, With Love
TTITLE2=Will You Marry Me
TTITLE3=Pearl's A Singer
TTITLE4=You Belong To Me
TTITLE5=I Only Wanna Be With You
TTITLE6=The End Of The World
TTITLE7=The Shoop Shoop Song
TTITLE8=The Power Of Love
TTITLE9=Be My Baby
TTITLE10=You're So Vain
TTITLE11=Hou Am I Supposed To Live Without You
TTITLE12=I Feel The Earth Move
TTITLE13=Something To Talk About
TTITLE14=What's Love Got To Do With It
TTITLE15=Please Mr Postman
TTITLE16=Time After Time
TTITLE17=If I Could Turn Back Time
TTITLE18=I Will Survive
TTITLE19=Hooked On Feeling
EXTD=
EXTT0=
EXTT1=
EXTT2=
EXTT3=
EXTT4=
EXTT5=
EXTT6=
EXTT7=
EXTT8=
EXTT9=
EXTT10=
EXTT11=
EXTT12=
EXTT13=
EXTT14=
EXTT15=
EXTT16=
EXTT17=
EXTT18=
EXTT19=
PLAYORDER=
